<?xml version="1.0" encoding="UTF-8" standalone="no"?> <!-- Created with Vectornator for iOS (http://vectornator.io/) --><!DOCTYPE svg PUBLIC "-//W3C//DTD SVG 1.1//EN" "http://www.w3.org/Graphics/SVG/1.1/DTD/svg11.dtd">
<svg style="fill-rule:evenodd;clip-rule:evenodd;stroke-linecap:round;stroke-linejoin:round;" xmlns:vectornator="http://vectornator.io" xmlns:xlink="http://www.w3.org/1999/xlink" xmlns="http://www.w3.org/2000/svg" xml:space="preserve" version="1.1" viewBox="0 0 1024 1024">
<metadata>
<vectornator:setting key="DisplayWhiteBackground" value="0"/>
<vectornator:setting key="RulersVisible" value="1"/>
<vectornator:setting key="SnapToEdges" value="0"/>
<vectornator:setting key="Units" value="Pixels"/>
<vectornator:setting key="DynamicGuides" value="0"/>
<vectornator:setting key="SnapToPoints" value="0"/>
<vectornator:setting key="SnapToGrid" value="0"/>
<vectornator:setting key="ShowGrid" value="1"/>
<vectornator:setting key="GridSpacing" value="36"/>
</metadata>
<defs>
<linearGradient y1="510.769" id="LinearGradient" x1="-6.09904" y2="510.769" x2="1029.55" gradientUnits="userSpaceOnUse" gradientTransform="matrix(-0.000490232 1 -1 -0.000490232 1022.74 -0.705436)">
<stop stop-color="#080744" offset="0.1"/>
<stop stop-color="#0067d5" offset="0.848077"/>
<stop stop-color="#d28754" offset="1"/>
</linearGradient>
</defs>
<g id="空" vectornator:layerName="空" visibility="hidden">
<path d="M1028.92-1.87421L1024.6+1027.44L-5.47664+1028.34L-1.35583-7.30653" opacity="1" fill="url(#LinearGradient)"/>
</g>
<g id="Layer 4" vectornator:layerName="Layer 4">
<path stroke="#000000" stroke-opacity="0" stroke-width="0.1" d="M-0.336778-0.371687L1024.37-0.287647L1024.55+1023.97L0.0165869+1024.14L-0.336778-0.371687Z" fill="#afddff" stroke-linecap="butt" opacity="1" stroke-linejoin="round"/>
</g>
<g id="Layer 5" vectornator:layerName="Layer 5">
<path stroke="#000000" stroke-opacity="0" stroke-width="0.1" d="M1025.02+1025.52L-0.396898+1024.42L-0.5423+875.965C-0.5423+875.965+73.7259+863.358+124.767+831.949C155.312+813.152+204.124+738.554+205.904+736.763C207.258+735.401+232.092+735.139+234.151+736.491C236.354+737.937+304.181+854.58+341.331+854.826C356.742+854.927+441.88+892.25+503.555+897.732C519.498+899.149+631.434+869.44+693.112+856.322C754.789+843.203+754.953+831.778+783.181+819.511C793.602+814.982+792.311+818.703+801.026+818.994C814.586+819.446+820.781+837.296+831.53+837.587C842.28+837.877+850.846+860.024+863.569+860.342C875.189+860.632+879.907+858.671+911.627+867.286C943.347+875.902+954.116+876.881+982.899+879.035C1011.68+881.188+1026.76+875.902+1026.76+875.902" fill="#1f6bac" stroke-linecap="butt" opacity="1" stroke-linejoin="round"/>
</g>
<g id="Layer 7" vectornator:layerName="Layer 7">
<path stroke="#000000" stroke-opacity="0" stroke-width="0.1" d="M1024.56+1024.18L-0.113081+1024.27L-0.397561+872.792C-0.397561+872.792+13.329+878.291+26.5544+881.407C41.4115+884.907+56.1074+886.076+59.1675+886.206C64.9517+886.452+85.1208+885.135+92.5595+885.429C111.419+886.174+114.793+865.063+120.415+865.311C150.481+866.638+144.306+852.645+152.947+851.094C156.621+850.435+158.601+843.236+165.664+843.993C170.289+844.488+168.304+841.826+179.373+842.011C189.282+842.176+212.141+867.086+232.401+870.99C273.834+878.975+271.068+867.932+315.305+864.479C323.648+863.828+332.801+857.917+347.392+859.053C386.794+862.12+375.208+852.977+409.351+857.18C451.431+862.359+451.032+871.332+483.584+882.212C539.376+900.859+580.69+899.259+639.817+904.654C698.944+910.049+685.354+898.503+720.092+903.791C771.569+911.627+830.554+890.308+847.999+890.718C883.306+891.549+895.901+912.418+934.396+905.672C974.687+898.61+973.735+926.701+995.871+920.625C1016.57+914.943+1024.95+916.056+1024.95+916.056" fill="#15627a" stroke-linecap="butt" opacity="1" stroke-linejoin="round"/>
</g>
<g id="Layer 6" vectornator:layerName="Layer 6">
<path stroke="#000000" stroke-opacity="0" stroke-width="0.1" d="M1024.76+1024.98L-1.22554+1024.51L-0.867144+919.405C-0.867144+919.405+70.8537+892.187+76.5138+892.244C80.7719+892.287+138.327+921.84+170.102+927.075C246.191+939.609+235.835+891.248+303.127+893.447C370.419+895.646+358.338+928.954+427.169+924.336C437.524+923.641+454.315+923.475+462.814+923.16C510.817+921.385+563.011+879.005+579.302+870.65C586.247+867.089+639.575+877.869+666.868+870.287C698.534+861.491+686.034+856.183+712.118+860.98C738.202+865.777+745.033+879.36+771.202+889.475C797.371+899.591+799.278+920.405+831.385+928.102C863.491+935.798+876.214+935.347+901.997+934.748C919.085+934.35+927.481+925.854+962.226+925.194C996.972+924.534+1026.28+925.348+1026.28+925.348" fill="#005d52" stroke-linecap="butt" opacity="1" stroke-linejoin="round"/>
</g>
<g id="Layer 2" vectornator:layerName="Layer 2" visibility="hidden">
<g opacity="1">
<path stroke="#f7f8f8" vectornator:shadowColor="#00c7ff" vectornator:shadowOffset="0.446429" stroke-width="3.35" fill-opacity="0" fill="#f0f1f5" stroke-linecap="butt" vectornator:shadowAngle="1.5708" stroke-linejoin="round" opacity="1" vectornator:shadowRadius="49.7321" d="M337.81+578.298L338.545+578.298L351.075+622.131L364.064+622.131L381.643+555.899L367.323+555.899L357.088+602.578L356.353+602.578L344.053+555.899L332.349+555.899L320.277+602.578L319.543+602.578L309.216+555.899L294.804+555.899L312.337+622.131L325.418+622.131L337.81+578.298Z" vectornator:shadowOpacity="1"/>
<path stroke="#f7f8f8" vectornator:shadowColor="#00c7ff" vectornator:shadowOffset="0.446429" stroke-width="3.35" fill-opacity="0" fill="#f0f1f5" stroke-linecap="butt" vectornator:shadowAngle="1.5708" stroke-linejoin="round" opacity="1" vectornator:shadowRadius="49.7321" d="M408.724+580.639C414.966+580.639+419.005+584.815+419.28+591.516L397.708+591.516C398.167+584.953+402.527+580.639+408.724+580.639ZM419.556+607.719C418.133+611.069+414.507+612.951+409.228+612.951C402.252+612.951+397.846+608.269+397.662+600.742L397.662+600.054L432.407+600.054L432.407+595.969C432.407+579.904+423.595+570.403+408.678+570.403C393.623+570.403+384.351+580.593+384.351+597.07C384.351+613.502+393.439+623.232+408.861+623.232C421.254+623.232+429.975+617.265+431.994+607.719L419.556+607.719Z" vectornator:shadowOpacity="1"/>
<path stroke="#f7f8f8" vectornator:shadowColor="#00c7ff" vectornator:shadowOffset="0.446429" stroke-width="3.35" fill-opacity="0" fill="#f0f1f5" stroke-linecap="butt" vectornator:shadowAngle="1.5708" stroke-linejoin="round" opacity="1" vectornator:shadowRadius="49.7321" d="M443.79+622.131L457.146+622.131L457.146+552.182L443.79+552.182L443.79+622.131Z" vectornator:shadowOpacity="1"/>
<path stroke="#f7f8f8" vectornator:shadowColor="#00c7ff" vectornator:shadowOffset="0.446429" stroke-width="3.35" fill-opacity="0" fill="#f0f1f5" stroke-linecap="butt" vectornator:shadowAngle="1.5708" stroke-linejoin="round" opacity="1" vectornator:shadowRadius="49.7321" d="M515.805+589.359C514.703+577.839+506.671+570.403+493.268+570.403C477.434+570.403+468.529+579.904+468.529+596.703C468.529+613.685+477.479+623.232+493.268+623.232C506.441+623.232+514.703+615.934+515.805+604.598L503.32+604.598C502.31+609.6+498.73+612.263+493.268+612.263C486.108+612.263+482.023+606.801+482.023+596.703C482.023+586.743+486.062+581.373+493.268+581.373C498.96+581.373+502.402+584.54+503.32+589.359L515.805+589.359Z" vectornator:shadowOpacity="1"/>
<path stroke="#f7f8f8" vectornator:shadowColor="#00c7ff" vectornator:shadowOffset="0.446429" stroke-width="3.35" fill-opacity="0" fill="#f0f1f5" stroke-linecap="butt" vectornator:shadowAngle="1.5708" stroke-linejoin="round" opacity="1" vectornator:shadowRadius="49.7321" d="M548.668+623.232C564.227+623.232+573.591+613.364+573.591+596.795C573.591+580.363+564.09+570.403+548.668+570.403C533.246+570.403+523.745+580.409+523.745+596.795C523.745+613.364+533.108+623.232+548.668+623.232ZM548.668+612.308C541.508+612.308+537.469+606.663+537.469+596.795C537.469+587.064+541.554+581.327+548.668+581.327C555.736+581.327+559.867+587.064+559.867+596.795C559.867+606.617+555.782+612.308+548.668+612.308Z" vectornator:shadowOpacity="1"/>
<path stroke="#f7f8f8" vectornator:shadowColor="#00c7ff" vectornator:shadowOffset="0.446429" stroke-width="3.35" fill-opacity="0" fill="#f0f1f5" stroke-linecap="butt" vectornator:shadowAngle="1.5708" stroke-linejoin="round" opacity="1" vectornator:shadowRadius="49.7321" d="M584.469+622.131L597.825+622.131L597.825+591.654C597.825+586.009+601.543+581.924+606.775+581.924C612.008+581.924+615.129+584.999+615.129+590.369L615.129+622.131L627.98+622.131L627.98+591.149C627.98+585.779+631.469+581.924+636.885+581.924C642.53+581.924+645.33+584.907+645.33+590.92L645.33+622.131L658.686+622.131L658.686+587.386C658.686+576.967+652.398+570.403+642.301+570.403C635.232+570.403+629.403+574.121+627.062+579.766L626.236+579.766C624.217+573.891+619.351+570.403+612.237+570.403C605.582+570.403+600.304+573.983+598.238+579.766L597.412+579.766L597.412+571.505L584.469+571.505L584.469+622.131Z" vectornator:shadowOpacity="1"/>
<path stroke="#f7f8f8" vectornator:shadowColor="#00c7ff" vectornator:shadowOffset="0.446429" stroke-width="3.35" fill-opacity="0" fill="#f0f1f5" stroke-linecap="butt" vectornator:shadowAngle="1.5708" stroke-linejoin="round" opacity="1" vectornator:shadowRadius="49.7321" d="M693.523+580.639C699.766+580.639+703.805+584.815+704.08+591.516L682.508+591.516C682.967+584.953+687.327+580.639+693.523+580.639ZM704.355+607.719C702.933+611.069+699.307+612.951+694.028+612.951C687.052+612.951+682.645+608.269+682.462+600.742L682.462+600.054L717.207+600.054L717.207+595.969C717.207+579.904+708.394+570.403+693.477+570.403C678.423+570.403+669.151+580.593+669.151+597.07C669.151+613.502+678.239+623.232+693.661+623.232C706.054+623.232+714.774+617.265+716.794+607.719L704.355+607.719Z" vectornator:shadowOpacity="1"/>
<path stroke="#f7f8f8" vectornator:shadowColor="#00c7ff" vectornator:shadowOffset="0.446429" stroke-width="3.35" fill-opacity="0" fill="#f0f1f5" stroke-linecap="butt" vectornator:shadowAngle="1.5708" stroke-linejoin="round" opacity="1" vectornator:shadowRadius="49.7321" d="M730.839+555.899L732.032+600.329L744.287+600.329L745.526+555.899L730.839+555.899ZM729.829+615.705C729.829+620.524+733.042+623.508+738.183+623.508C743.369+623.508+746.536+620.524+746.536+615.705C746.536+610.84+743.369+607.856+738.183+607.856C733.042+607.856+729.829+610.84+729.829+615.705Z" vectornator:shadowOpacity="1"/>
</g>
</g>
</svg>
