<?xml version="1.0" encoding="UTF-8" standalone="no"?> <!-- Created with Vectornator for iOS (http://vectornator.io/) --><!DOCTYPE svg PUBLIC "-//W3C//DTD SVG 1.1//EN" "http://www.w3.org/Graphics/SVG/1.1/DTD/svg11.dtd">
<svg style="fill-rule:evenodd;clip-rule:evenodd;stroke-linecap:round;stroke-linejoin:round;" xmlns:vectornator="http://vectornator.io" xmlns:xlink="http://www.w3.org/1999/xlink" xmlns="http://www.w3.org/2000/svg" xml:space="preserve" version="1.1" viewBox="0 0 1024 1024">
<metadata>
<vectornator:setting key="DisplayWhiteBackground" value="0"/>
<vectornator:setting key="RulersVisible" value="1"/>
<vectornator:setting key="GridSpacing" value="36"/>
<vectornator:setting key="Units" value="Pixels"/>
<vectornator:setting key="DynamicGuides" value="0"/>
<vectornator:setting key="SnapToPoints" value="0"/>
<vectornator:setting key="CMYKEnabledKey" value="0"/>
<vectornator:setting key="SnapToGrid" value="0"/>
<vectornator:setting key="ShowGrid" value="1"/>
<vectornator:setting key="SnapToEdges" value="0"/>
</metadata>
<defs>
<linearGradient y1="512.279" id="LinearGradient" x1="0.666667" y2="512.279" x2="1024.87" gradientUnits="userSpaceOnUse" gradientTransform="matrix(0.000129656 1 -1 0.000129656 1024.15 -0.557967)">
<stop stop-color="#221b4e" offset="0"/>
<stop stop-color="#3e3685" offset="0.617308"/>
<stop stop-color="#6c6fcc" offset="1"/>
</linearGradient>
<linearGradient y1="512.279" id="LinearGradient_2" x1="0.666667" y2="512.279" x2="1024.87" gradientUnits="userSpaceOnUse" gradientTransform="matrix(0.000129656 1 -1 0.000129656 1024.15 -0.557967)">
<stop stop-color="#18efff" offset="0.173077"/>
<stop stop-color="#6fd6d4" offset="0.715385"/>
<stop stop-color="#fcf5de" offset="1"/>
</linearGradient>
</defs>
<g id="dark_sky" vectornator:layerName="dark_sky" visibility="hidden">
<path stroke="#000000" stroke-opacity="0" stroke-width="0.1" d="M1024.32+0.108678L1024.45+1024.32L-0.437604+1024.45L-0.570398+0.241561L1024.32+0.108678Z" fill="url(#LinearGradient)" stroke-linecap="butt" opacity="1" stroke-linejoin="round"/>
</g>
<g id="dark_4" vectornator:layerName="dark_4" visibility="hidden">
<path stroke="#000000" stroke-opacity="0" stroke-width="0.1" d="M-0.470401+873.031C-0.470401+873.031+11.0513+875.371+17.8756+871.959C21.6699+870.062+26.5794+870.34+30.5776+869.198C36.53+867.497+41.9632+864.864+47.6976+862.57C52.3471+860.711+57.438+860.684+62.0563+858.705C66.9893+856.59+72.0431+853.987+76.9673+851.525C83.5266+848.246+91.0633+846.194+97.9532+843.241C100.498+842.151+103.835+842.474+106.237+841.032C111.319+837.983+116.535+834.872+121.7+831.644C128.225+827.566+119.757+833.168+126.118+829.987C128.498+828.797+130.641+826.595+132.745+825.017C135.82+822.711+139.471+821.605+142.134+818.942C143.621+817.455+144.09+814.564+145.447+812.867C147.449+810.365+150.455+808.412+152.627+806.24C153.731+805.135+154.284+803.479+155.388+802.374C160.707+797.056+168.065+793.458+173.06+787.463C175.802+784.173+183.314+777.872+185.482+774.259C188.238+769.666+190.324+765.458+194.416+762.029C196.767+760.06+203.365+754.726+203.365+754.726C203.365+754.726+224.759+754.836+228.146+756.4C231.136+757.78+234.516+761.573+241.759+768.816C250.826+777.882+252.757+775.889+259.372+786.913C260.588+788.939+269.607+794.343+271.363+795.747C272.688+796.808+273.029+798.518+274.124+799.613C276.313+801.802+279.568+802.848+281.855+805.135C284.742+808.022+286.652+812.141+289.587+815.076C294.562+820.051+301.822+821.491+307.259+825.569C316.395+832.421+326.109+839.584+337.081+843.241C339.067+843.903+343.331+850.619+345.186+851.361C355.205+855.369+360.091+861.735+371.34+861.267C376.552+861.049+384.652+870.105+389.897+870.855C396.714+871.829+402.607+875.376+409.383+876.732C411.463+877.147+415.638+882.698+417.734+883.536C421.31+884.966+422.427+886.824+425.467+889.103C429.792+892.347+430.912+889.829+435.983+889.722C441.054+889.615+444.683+886.214+446.499+888.485C448.223+890.64+451.417+887.426+454.16+887.974C458.738+888.89+464.238+887.388+468.519+886.318C470.945+885.711+473.825+886.924+476.251+886.318C480.917+885.151+486.152+883.826+491.162+884.661C493.837+885.107+496.304+886.904+498.893+887.422C502.517+888.147+506.479+888.247+509.938+889.631C513.91+891.22+517.879+893.549+522.088+894.601C524.184+895.125+527.085+894.601+529.268+894.601C536.834+894.601+544.451+894.01+551.91+892.945C561.992+891.504+572.052+895.328+582.284+894.049C585.691+893.623+589.572+891.201+592.225+889.079C593.936+887.71+595.415+885.68+597.748+885.213C601.297+884.503+604.719+886.352+608.241+885.765C612.707+885.021+617.183+883.53+621.495+882.452C624.962+881.585+627.283+883.346+630.331+884.109C636.795+885.724+644.868+891.031+651.869+889.631C655.025+889+660.646+886.377+662.914+884.109C664.818+882.205+666.172+880.395+668.989+879.69C672.729+878.755+675.817+882.264+679.482+881.347C682.493+880.595+685.11+876.866+687.766+875.272C693.368+871.911+700.715+871.007+706.543+868.093C709.464+866.632+711.879+867.578+714.827+866.988C717.391+866.476+719.921+865.219+722.558+864.779C724.802+864.405+727.27+866.491+729.456+865.945C730.626+865.652+732.729+866.625+733.899+866.332C735.285+865.986+735.868+865.724+737.836+864.548C739.804+863.372+741.103+862.43+741.772+861.628C744.142+858.784+744.445+857.023+747.358+854.645C750.271+852.267+755.393+853.544+756.373+853.375C760.055+852.74+760.711+849.791+766.276+848.678C773.86+847.161+778.171+842.464+785.828+840.933C793.455+839.408+796.713+846.796+799.921+846.773C803.129+846.75+806.501+848.502+809.951+851.09C815.559+855.295+821.956+859.207+828.107+862.898C831.525+864.948+838.629+865.256+842.398+865.884C850.811+867.286+859.325+869.643+867.802+870.854C874.072+871.75+879.409+876.381+884.922+879.138C887.062+880.208+890.333+880.408+892.654+880.795C894.591+881.118+896.289+882.626+898.177+883.004C909.24+885.217+921.244+881.868+932.417+884.661C940.259+886.621+946.911+890.965+954.507+893.497C960.277+895.42+966.438+896.001+972.179+897.915C974.567+898.711+976.768+899.836+979.359+900.124C986.283+900.893+993.388+900.693+1000.34+901.229C1009.42+901.927+1024.36+902.662+1024.36+902.662L1024.12+1024.36L-0.12258+1024.12" fill="#344485" stroke-linecap="butt" opacity="1" stroke-linejoin="round"/>
</g>
<g id="dark_3" vectornator:layerName="dark_3" visibility="hidden">
<path stroke="#000000" stroke-opacity="0" stroke-width="0.1" d="M-8.30518+883.063C-9.85426+881.514-9.27269+882.354-10.1442+880.611" fill="#5fcce8" stroke-linecap="butt" opacity="1" stroke-linejoin="round"/>
<path stroke="#000000" stroke-opacity="0" stroke-width="0.1" d="M-1.76597+885.032C0.340471+885.032+2.40079+881.181+4.52837+881.536C6.86012+881.924+8.08328+876.691+10.473+876.99C13.5272+877.371+16.1392+871.744+19.2152+871.744C23.5231+871.744+30.4086+873.531+34.7164+873.531C35.8501+873.531+37.155+872.864+38.0982+873.493C38.52+873.774+38.7976+874.892+38.7976+874.892C38.7976+874.892+44.9071+874.486+46.2797+874.211C49.479+873.572+55.8024+872.851+55.8024+872.851C55.8024+872.851+60.0985+873.71+62.6043+874.211C65.8223+874.855+67.0036+869.18+70.2693+869.646C73.9695+870.175+78.2095+868.179+81.6747+869.045C85.2495+869.939+89.5573+868.636+93.238+869.045C106.705+870.542+118.402+880.559+131.814+882.235C141.474+883.442+151.223+876.867+160.577+878.568C167.73+879.869+175.234+880.104+182.343+881.289C187.761+882.192+192.63+885.38+197.987+886.05C200.428+886.355+203.045+885.646+205.47+886.05C210.609+886.907+213.791+890.331+218.393+892.172C223.387+894.169+229.525+893.347+234.718+894.212C237.097+894.609+238.46+896.537+240.84+896.933C245.268+897.671+249.988+897.057+254.443+897.613C258.513+898.122+262.475+900.413+266.687+901.014C272.461+901.839+278.565+900.434+284.372+901.014C296.796+902.257+309.549+903.737+321.782+905.776C325.272+906.357+328.437+907.99+331.985+908.496C337.118+909.23+343.337+907.076+348.31+908.496C356.782+910.917+358.533+907.731+367.349+908.991C370.828+909.488+378.619+907.608+382.309+907.081C385.504+906.625+388.243+905.853+392.495+905.171C397.787+904.323+398.735+902.847+403.635+900.397C406.927+898.751+414.022+895.064+417.004+893.076C420.524+890.729+426.934+894.795+430.054+892.121C433.815+888.898+437.354+886.791+440.816+883.329C442.571+881.574+446.74+881.168+448.978+880.609C454.815+879.149+460.292+877.443+465.983+875.167C473.006+872.358+476.188+863.295+483.847+862.201C486.283+861.853+492.561+866.106+494.987+865.702C499.777+864.904+503.439+861.146+508.155+860.203C511.77+859.48+515.374+860.57+519.038+859.523C524.479+857.968+529.067+854.695+534.002+852.721C537.166+851.455+541.499+851.357+544.885+850.68C553.84+848.889+564.677+850.68+574.133+850.68C577.543+850.68+583.152+851.755+586.377+850.68C589.899+849.506+592.857+848.024+596.58+847.279C604.701+845.655+615.221+847.062+623.107+848.64C628.472+849.713+634.922+848.144+640.112+847.279C642.356+846.905+643.613+845.528+645.553+844.558C648.177+843.246+651.089+842.471+653.716+841.157C659.85+838.09+665.102+833.711+672.081+832.315C676.102+831.511+679.966+832.94+683.644+833.675C693.943+835.735+704.096+838.936+714.253+841.838C716.915+842.598+718.893+844.085+721.735+844.558C726.746+845.394+731.758+846.971+736.699+847.959C738.376+848.295+739.679+849.703+741.46+850C744.313+850.475+747.546+850.938+750.303+852.041C752.944+853.097+755.689+855.566+758.465+856.122C767.036+857.836+775.777+859.176+784.313+860.883C787.227+861.466+788.937+864.011+791.114+865.644C792.652+866.798+795.435+867.325+797.236+867.685C808.513+869.94+818.093+862.061+829.205+864.284C832.952+865.033+836.393+867.626+840.088+868.365C847.529+869.853+858.376+870.305+865.935+869.045C875.633+867.429+882.289+859.899+891.103+856.122C894.489+854.67+899.087+855.273+902.666+854.761C909.448+853.792+914.99+849.76+921.711+848.64C927.352+847.699+933.861+850.023+939.396+848.64C943.077+847.719+945.514+845.155+948.919+843.878C952.407+842.57+951.161+843.811+955.041+842.518C960.605+840.663+966.151+837.379+972.045+836.396C976.581+835.64+981.497+834.23+986.329+835.036C988.219+835.351+989.962+836.715+991.771+837.076C994.146+837.551+996.85+837.356+999.253+837.757C1006.04+838.887+1025.23+850.881+1025.23+850.881L1024.57+1024.65L0.344305+1024.09" fill="#253474" stroke-linecap="butt" opacity="1" stroke-linejoin="round"/>
</g>
<g id="dark_2" vectornator:layerName="dark_2" visibility="hidden">
<path stroke="#000000" stroke-opacity="0" stroke-width="0.1" d="M-0.152109+913.138C-0.152109+913.138+5.26613+911.475+8.01278+910.926C12.3959+910.049+17.7991+910.926+22.2693+910.926C24.3724+910.926+27.3521+910.414+29.3976+910.926C34.4411+912.187+40.2997+911.574+45.5982+911.574C47.9539+911.574+51.0959+912.143+53.3745+911.574C59.353+910.079+65.2259+907.737+71.5192+907.038C90.2674+904.954+109.463+908.132+127.897+904.446C133.09+903.407+138.905+905.484+144.098+904.446C150.068+903.251+156.871+903.442+162.891+904.446C170.197+905.663+177.763+904.31+184.923+905.742C191.972+907.151+198.968+904.265+205.66+903.149C216.211+901.391+227.491+903.615+238.062+901.853C245.26+900.654+252.494+897.691+259.446+895.373C267.219+892.782+274.981+892.881+282.775+889.541C288.753+886.979+294.578+882.054+300.92+880.469C304+879.699+307.512+879.15+310.64+878.525C312.487+878.155+314.646+878.981+316.472+878.525C320.664+877.477+324.608+876.12+328.785+875.284C331.673+874.707+334.329+872.116+337.209+871.396C339.552+870.811+344.587+870.811+346.93+871.396C350.262+872.229+353.568+876.335+356.65+877.877C359.421+879.262+362.905+880.356+365.722+881.765C367.471+882.639+368.806+884.48+370.907+885.005C372.427+885.385+373.362+884.578+374.795+885.653C377.335+887.558+379.284+892.11+381.923+893.429C383.434+894.184+385.531+894.191+387.107+895.373C389.358+897.061+389.447+900.097+391.643+901.853C396.096+905.416+400.536+907.272+405.252+909.63C409.627+911.817+414.493+916.403+419.508+917.406C422.14+917.932+423.571+916.594+425.989+916.11C430.92+915.124+437.154+916.11+442.189+916.11C457.574+916.11+473.495+917.755+488.199+914.814C491.906+914.073+496.201+915.729+499.863+914.814C501.222+914.474+502.38+913.144+503.752+912.87C513.924+910.835+521.846+921.434+532.265+919.35C535.569+918.689+539.451+918.315+542.633+917.406C546.496+916.302+551.439+912.929+554.946+910.926C560.577+907.708+566.932+906.456+572.442+903.149C575.774+901.151+578.79+898.596+582.163+896.669C587.706+893.502+593.851+892.03+599.659+889.541C604.047+887.66+607.71+884.117+611.972+882.413C618.004+880+624.077+880.034+630.116+878.525C634.382+877.458+638.911+874.97+643.725+875.932C653.402+877.868+665.171+881.882+675.478+879.821C679.314+879.053+682.09+875.575+685.847+874.636C689.911+873.62+694.109+873.057+698.159+872.044C702.556+870.945+706.394+867.508+711.119+867.508C717.381+867.508+721.111+873.611+724.728+877.228C727.436+879.936+732.601+879.878+735.744+881.765C738.609+883.484+741.547+885.63+744.169+887.597C745.64+888.7+747.095+887.927+748.705+888.893C752.061+890.907+756.661+893.004+761.017+892.133C772.684+889.8+782.471+886.591+793.419+881.117C796.551+879.55+800.072+879.069+803.139+877.228C807.47+874.63+810.005+871.011+813.507+867.508C814.85+866.166+817.641+867.061+819.34+866.212C821.988+864.888+824.905+862.391+827.764+861.676C830.898+860.892+834.414+861.796+837.484+861.028C842.072+859.881+846.432+858.072+851.093+857.14C857.72+855.814+864.69+856.819+871.182+855.196C876.352+853.903+880.046+861.034+883.494+863.62C885.595+865.196+887.539+866.369+889.326+868.156C892.678+871.507+899.379+873.182+903.583+875.284C910.814+878.9+915.915+881.922+924.32+879.821C925.978+879.406+927.835+884.889+929.107+883.936C931.485+882.152+935.981+898.384+938.369+896.593C944.35+892.107+946.417+915.61+952.43+911.1C957.626+907.203+964.787+907.178+969.926+903.324C972.898+901.095+974.293+897.718+976.407+894.9C978.333+892.332+983.235+889.217+986.127+887.771C989.586+886.042+994.679+889.585+997.792+890.363C1000.63+891.073+1003.03+889.055+1005.57+888.419C1008.05+887.798+1010.86+888.392+1013.34+887.771C1016.5+886.982+1024.86+890.728+1024.86+890.728L1023.9+1023.92L0.096098+1024.33" fill="#1d295b" stroke-linecap="butt" opacity="1" stroke-linejoin="round"/>
</g>
<g id="dark_1" vectornator:layerName="dark_1" visibility="hidden">
<path stroke="#000000" stroke-opacity="0" stroke-width="0.1" d="M-0.656627+897.245C-0.656627+897.245+6.39927+899.079+8.05847+899.701C11.3476+900.935+15.2115+900.869+18.38+902.454C21.2956+903.912+24.0946+905.775+27.3253+906.582C29.037+907.01+31.175+906.798+32.8302+907.27C35.3883+908.001+38.2018+910.081+40.3993+911.399C42.0902+912.414+43.4166+911.876+45.216+912.775C47.3167+913.826+48.4713+916.467+50.7208+917.592C55.2473+919.855+60.653+920.15+65.171+922.409C74.6703+927.158+84.1974+930.97+94.7594+932.73C95.7712+932.899+96.5+933.938+97.5118+934.106C104.635+935.294+112.468+934.07+119.531+935.483C123.888+936.354+127.152+938.252+131.229+939.611C135.022+940.876+140.332+941.014+144.303+941.676C146.423+942.029+148.376+943.387+150.496+943.74C158.932+945.146+167.561+945.981+175.956+947.18C178.878+947.598+181.979+946.763+184.901+947.18C195.881+948.749+206.607+950.558+217.242+952.685C222.625+953.762+227.853+950.954+233.068+951.997C235.456+952.475+237.625+953.481+239.949+954.061C244.501+955.199+250.206+952.676+255.087+953.373C262.516+954.435+272.245+955.149+279.859+954.061C287.595+952.956+294.258+949.393+301.878+947.869C303.866+947.471+306.07+948.202+308.071+947.869C318.287+946.166+328.926+947.138+339.036+945.116C342.314+944.46+346.118+945.926+349.358+945.116C351.166+944.664+352.002+943.106+353.486+942.364C354.835+941.689+358.122+941.247+359.679+940.988C365.511+940.015+371.524+939.611+377.57+939.611C380.553+939.611+384.295+940.193+387.203+939.611C392.931+938.466+398.708+937.998+404.406+936.859C410.293+935.681+415.89+932.784+421.608+931.354C423.822+930.801+426.261+931.223+428.489+930.666C437.458+928.424+448.213+931.721+456.702+933.418C467.098+935.498+479.425+936.857+490.419+935.483C499.013+934.408+507.891+935.662+516.567+934.795C523.518+934.099+529.728+931.636+536.521+930.666C544.236+929.564+552.206+930.391+559.917+929.29C565.414+928.504+570.738+925.662+575.743+923.785C579.609+922.335+584.137+922.291+588.129+921.721C593.454+920.96+598.623+919.635+603.956+918.968C610.24+918.183+617.311+918.867+623.222+920.344C626.854+921.252+631.193+919.878+634.92+920.344C638.504+920.792+642.269+921.556+645.93+921.033C656.582+919.511+667.603+921.678+678.271+920.344C684.525+919.563+691.116+918.051+697.538+918.968C702.021+919.609+704.902+922.918+709.235+923.785C712.753+924.488+716.679+923.879+720.245+924.473C726.095+925.448+732.866+925.161+738.824+925.161C741.472+925.161+745.188+924.516+747.769+925.161C754.714+926.897+761.085+927.914+768.412+927.914C773.131+927.914+778.181+928.434+782.862+927.914C786.081+927.556+789.195+926.754+792.496+927.225C799.405+928.212+805.662+932.409+812.451+934.106C815.967+934.985+820.173+935.215+823.46+936.859C827.838+939.048+833.614+941.533+838.599+942.364C841.541+942.854+844.614+942.466+847.544+943.052C853.584+944.26+859.404+946.175+865.435+947.18C872.597+948.374+878.948+953.561+886.078+954.75C890.982+955.567+895.313+953.817+899.84+952.685C906.962+950.905+914.993+950.868+921.996+948.745C927.742+947.004+932.551+943.38+937.685+940.299C939.803+939.029+944.867+937.133+949.428+935.547C954.05+933.94+958.156+932.65+958.156+932.65C958.156+932.65+964.262+932.149+969.338+933.418C971.566+933.975+974.249+934.005+976.219+935.483C980.748+938.88+983.788+942.364+989.293+943.74C996.737+945.601+1004.56+946.007+1012+947.869C1013.3+948.192+1014.82+947.606+1016.13+947.869C1018.61+948.364+1024.84+948.624+1024.84+948.624L1024.84+1024.96L-0.604615+1024.41" fill="#14193e" stroke-linecap="butt" opacity="1" stroke-linejoin="round"/>
</g>
<g id="lite_sky" vectornator:layerName="lite_sky">
<path stroke="#000000" stroke-opacity="0" stroke-width="0.1" d="M1024.32+0.108678L1024.45+1024.32L-0.437604+1024.45L-0.570398+0.241561L1024.32+0.108678Z" fill="url(#LinearGradient_2)" stroke-linecap="butt" opacity="1" stroke-linejoin="round"/>
</g>
<g id="lite_4" vectornator:layerName="lite_4">
<path stroke="#000000" stroke-opacity="0" stroke-width="0.1" d="M-0.470401+873.031C-0.470401+873.031+11.0513+875.371+17.8756+871.959C21.6699+870.062+26.5794+870.34+30.5776+869.198C36.53+867.497+41.9632+864.864+47.6976+862.57C52.3471+860.711+57.438+860.684+62.0563+858.705C66.9893+856.59+72.0431+853.987+76.9673+851.525C83.5266+848.246+91.0633+846.194+97.9532+843.241C100.498+842.151+103.835+842.474+106.237+841.032C111.319+837.983+116.535+834.872+121.7+831.644C128.225+827.566+119.757+833.168+126.118+829.987C128.498+828.797+130.641+826.595+132.745+825.017C135.82+822.711+139.471+821.605+142.134+818.942C143.621+817.455+144.09+814.564+145.447+812.867C147.449+810.365+150.455+808.412+152.627+806.24C153.731+805.135+154.284+803.479+155.388+802.374C160.707+797.056+168.065+793.458+173.06+787.463C175.802+784.173+183.314+777.872+185.482+774.259C188.238+769.666+190.324+765.458+194.416+762.029C196.767+760.06+203.365+754.726+203.365+754.726C203.365+754.726+224.759+754.836+228.146+756.4C231.136+757.78+234.516+761.573+241.759+768.816C250.826+777.882+252.757+775.889+259.372+786.913C260.588+788.939+269.607+794.343+271.363+795.747C272.688+796.808+273.029+798.518+274.124+799.613C276.313+801.802+279.568+802.848+281.855+805.135C284.742+808.022+286.652+812.141+289.587+815.076C294.562+820.051+301.822+821.491+307.259+825.569C316.395+832.421+326.109+839.584+337.081+843.241C339.067+843.903+343.331+850.619+345.186+851.361C355.205+855.369+360.091+861.735+371.34+861.267C376.552+861.049+384.652+870.105+389.897+870.855C396.714+871.829+402.607+875.376+409.383+876.732C411.463+877.147+415.638+882.698+417.734+883.536C421.31+884.966+422.427+886.824+425.467+889.103C429.792+892.347+430.912+889.829+435.983+889.722C441.054+889.615+444.683+886.214+446.499+888.485C448.223+890.64+451.417+887.426+454.16+887.974C458.738+888.89+464.238+887.388+468.519+886.318C470.945+885.711+473.825+886.924+476.251+886.318C480.917+885.151+486.152+883.826+491.162+884.661C493.837+885.107+496.304+886.904+498.893+887.422C502.517+888.147+506.479+888.247+509.938+889.631C513.91+891.22+517.879+893.549+522.088+894.601C524.184+895.125+527.085+894.601+529.268+894.601C536.834+894.601+544.451+894.01+551.91+892.945C561.992+891.504+572.052+895.328+582.284+894.049C585.691+893.623+589.572+891.201+592.225+889.079C593.936+887.71+595.415+885.68+597.748+885.213C601.297+884.503+604.719+886.352+608.241+885.765C612.707+885.021+617.183+883.53+621.495+882.452C624.962+881.585+627.283+883.346+630.331+884.109C636.795+885.724+644.868+891.031+651.869+889.631C655.025+889+660.646+886.377+662.914+884.109C664.818+882.205+666.172+880.395+668.989+879.69C672.729+878.755+675.817+882.264+679.482+881.347C682.493+880.595+685.11+876.866+687.766+875.272C693.368+871.911+700.715+871.007+706.543+868.093C709.464+866.632+711.879+867.578+714.827+866.988C717.391+866.476+719.921+865.219+722.558+864.779C724.802+864.405+727.27+866.491+729.456+865.945C730.626+865.652+732.729+866.625+733.899+866.332C735.285+865.986+735.868+865.724+737.836+864.548C739.804+863.372+741.103+862.43+741.772+861.628C744.142+858.784+744.445+857.023+747.358+854.645C750.271+852.267+755.393+853.544+756.373+853.375C760.055+852.74+760.711+849.791+766.276+848.678C773.86+847.161+778.171+842.464+785.828+840.933C793.455+839.408+796.713+846.796+799.921+846.773C803.129+846.75+806.501+848.502+809.951+851.09C815.559+855.295+821.956+859.207+828.107+862.898C831.525+864.948+838.629+865.256+842.398+865.884C850.811+867.286+859.325+869.643+867.802+870.854C874.072+871.75+879.409+876.381+884.922+879.138C887.062+880.208+890.333+880.408+892.654+880.795C894.591+881.118+896.289+882.626+898.177+883.004C909.24+885.217+921.244+881.868+932.417+884.661C940.259+886.621+946.911+890.965+954.507+893.497C960.277+895.42+966.438+896.001+972.179+897.915C974.567+898.711+976.768+899.836+979.359+900.124C986.283+900.893+993.388+900.693+1000.34+901.229C1009.42+901.927+1024.36+902.662+1024.36+902.662L1024.12+1024.36L-0.12258+1024.12" fill="#74dbff" stroke-linecap="butt" opacity="1" stroke-linejoin="round"/>
</g>
<g id="lite_3" vectornator:layerName="lite_3">
<path stroke="#000000" stroke-opacity="0" stroke-width="0.1" d="M-8.30518+883.063C-9.85426+881.514-9.27269+882.354-10.1442+880.611" fill="#5fcce8" stroke-linecap="butt" opacity="1" stroke-linejoin="round"/>
<path stroke="#000000" stroke-opacity="0" stroke-width="0.1" d="M-1.76597+885.032C0.340471+885.032+2.40079+881.181+4.52837+881.536C6.86012+881.924+8.08328+876.691+10.473+876.99C13.5272+877.371+16.1392+871.744+19.2152+871.744C23.5231+871.744+30.4086+873.531+34.7164+873.531C35.8501+873.531+37.155+872.864+38.0982+873.493C38.52+873.774+38.7976+874.892+38.7976+874.892C38.7976+874.892+44.9071+874.486+46.2797+874.211C49.479+873.572+55.8024+872.851+55.8024+872.851C55.8024+872.851+60.0985+873.71+62.6043+874.211C65.8223+874.855+67.0036+869.18+70.2693+869.646C73.9695+870.175+78.2095+868.179+81.6747+869.045C85.2495+869.939+89.5573+868.636+93.238+869.045C106.705+870.542+118.402+880.559+131.814+882.235C141.474+883.442+151.223+876.867+160.577+878.568C167.73+879.869+175.234+880.104+182.343+881.289C187.761+882.192+192.63+885.38+197.987+886.05C200.428+886.355+203.045+885.646+205.47+886.05C210.609+886.907+213.791+890.331+218.393+892.172C223.387+894.169+229.525+893.347+234.718+894.212C237.097+894.609+238.46+896.537+240.84+896.933C245.268+897.671+249.988+897.057+254.443+897.613C258.513+898.122+262.475+900.413+266.687+901.014C272.461+901.839+278.565+900.434+284.372+901.014C296.796+902.257+309.549+903.737+321.782+905.776C325.272+906.357+328.437+907.99+331.985+908.496C337.118+909.23+343.337+907.076+348.31+908.496C356.782+910.917+358.533+907.731+367.349+908.991C370.828+909.488+378.619+907.608+382.309+907.081C385.504+906.625+388.243+905.853+392.495+905.171C397.787+904.323+398.735+902.847+403.635+900.397C406.927+898.751+414.022+895.064+417.004+893.076C420.524+890.729+426.934+894.795+430.054+892.121C433.815+888.898+437.354+886.791+440.816+883.329C442.571+881.574+446.74+881.168+448.978+880.609C454.815+879.149+460.292+877.443+465.983+875.167C473.006+872.358+476.188+863.295+483.847+862.201C486.283+861.853+492.561+866.106+494.987+865.702C499.777+864.904+503.439+861.146+508.155+860.203C511.77+859.48+515.374+860.57+519.038+859.523C524.479+857.968+529.067+854.695+534.002+852.721C537.166+851.455+541.499+851.357+544.885+850.68C553.84+848.889+564.677+850.68+574.133+850.68C577.543+850.68+583.152+851.755+586.377+850.68C589.899+849.506+592.857+848.024+596.58+847.279C604.701+845.655+615.221+847.062+623.107+848.64C628.472+849.713+634.922+848.144+640.112+847.279C642.356+846.905+643.613+845.528+645.553+844.558C648.177+843.246+651.089+842.471+653.716+841.157C659.85+838.09+665.102+833.711+672.081+832.315C676.102+831.511+679.966+832.94+683.644+833.675C693.943+835.735+704.096+838.936+714.253+841.838C716.915+842.598+718.893+844.085+721.735+844.558C726.746+845.394+731.758+846.971+736.699+847.959C738.376+848.295+739.679+849.703+741.46+850C744.313+850.475+747.546+850.938+750.303+852.041C752.944+853.097+755.689+855.566+758.465+856.122C767.036+857.836+775.777+859.176+784.313+860.883C787.227+861.466+788.937+864.011+791.114+865.644C792.652+866.798+795.435+867.325+797.236+867.685C808.513+869.94+818.093+862.061+829.205+864.284C832.952+865.033+836.393+867.626+840.088+868.365C847.529+869.853+858.376+870.305+865.935+869.045C875.633+867.429+882.289+859.899+891.103+856.122C894.489+854.67+899.087+855.273+902.666+854.761C909.448+853.792+914.99+849.76+921.711+848.64C927.352+847.699+933.861+850.023+939.396+848.64C943.077+847.719+945.514+845.155+948.919+843.878C952.407+842.57+951.161+843.811+955.041+842.518C960.605+840.663+966.151+837.379+972.045+836.396C976.581+835.64+981.497+834.23+986.329+835.036C988.219+835.351+989.962+836.715+991.771+837.076C994.146+837.551+996.85+837.356+999.253+837.757C1006.04+838.887+1025.23+850.881+1025.23+850.881L1024.57+1024.65L0.344305+1024.09" fill="#5fcce8" stroke-linecap="butt" opacity="1" stroke-linejoin="round"/>
</g>
<g id="lite_2" vectornator:layerName="lite_2">
<path stroke="#000000" stroke-opacity="0" stroke-width="0.1" d="M-0.152109+913.138C-0.152109+913.138+5.26613+911.475+8.01278+910.926C12.3959+910.049+17.7991+910.926+22.2693+910.926C24.3724+910.926+27.3521+910.414+29.3976+910.926C34.4411+912.187+40.2997+911.574+45.5982+911.574C47.9539+911.574+51.0959+912.143+53.3745+911.574C59.353+910.079+65.2259+907.737+71.5192+907.038C90.2674+904.954+109.463+908.132+127.897+904.446C133.09+903.407+138.905+905.484+144.098+904.446C150.068+903.251+156.871+903.442+162.891+904.446C170.197+905.663+177.763+904.31+184.923+905.742C191.972+907.151+198.968+904.265+205.66+903.149C216.211+901.391+227.491+903.615+238.062+901.853C245.26+900.654+252.494+897.691+259.446+895.373C267.219+892.782+274.981+892.881+282.775+889.541C288.753+886.979+294.578+882.054+300.92+880.469C304+879.699+307.512+879.15+310.64+878.525C312.487+878.155+314.646+878.981+316.472+878.525C320.664+877.477+324.608+876.12+328.785+875.284C331.673+874.707+334.329+872.116+337.209+871.396C339.552+870.811+344.587+870.811+346.93+871.396C350.262+872.229+353.568+876.335+356.65+877.877C359.421+879.262+362.905+880.356+365.722+881.765C367.471+882.639+368.806+884.48+370.907+885.005C372.427+885.385+373.362+884.578+374.795+885.653C377.335+887.558+379.284+892.11+381.923+893.429C383.434+894.184+385.531+894.191+387.107+895.373C389.358+897.061+389.447+900.097+391.643+901.853C396.096+905.416+400.536+907.272+405.252+909.63C409.627+911.817+414.493+916.403+419.508+917.406C422.14+917.932+423.571+916.594+425.989+916.11C430.92+915.124+437.154+916.11+442.189+916.11C457.574+916.11+473.495+917.755+488.199+914.814C491.906+914.073+496.201+915.729+499.863+914.814C501.222+914.474+502.38+913.144+503.752+912.87C513.924+910.835+521.846+921.434+532.265+919.35C535.569+918.689+539.451+918.315+542.633+917.406C546.496+916.302+551.439+912.929+554.946+910.926C560.577+907.708+566.932+906.456+572.442+903.149C575.774+901.151+578.79+898.596+582.163+896.669C587.706+893.502+593.851+892.03+599.659+889.541C604.047+887.66+607.71+884.117+611.972+882.413C618.004+880+624.077+880.034+630.116+878.525C634.382+877.458+638.911+874.97+643.725+875.932C653.402+877.868+665.171+881.882+675.478+879.821C679.314+879.053+682.09+875.575+685.847+874.636C689.911+873.62+694.109+873.057+698.159+872.044C702.556+870.945+706.394+867.508+711.119+867.508C717.381+867.508+721.111+873.611+724.728+877.228C727.436+879.936+732.601+879.878+735.744+881.765C738.609+883.484+741.547+885.63+744.169+887.597C745.64+888.7+747.095+887.927+748.705+888.893C752.061+890.907+756.661+893.004+761.017+892.133C772.684+889.8+782.471+886.591+793.419+881.117C796.551+879.55+800.072+879.069+803.139+877.228C807.47+874.63+810.005+871.011+813.507+867.508C814.85+866.166+817.641+867.061+819.34+866.212C821.988+864.888+824.905+862.391+827.764+861.676C830.898+860.892+834.414+861.796+837.484+861.028C842.072+859.881+846.432+858.072+851.093+857.14C857.72+855.814+864.69+856.819+871.182+855.196C876.352+853.903+880.046+861.034+883.494+863.62C885.595+865.196+887.539+866.369+889.326+868.156C892.678+871.507+899.379+873.182+903.583+875.284C910.814+878.9+915.915+881.922+924.32+879.821C925.978+879.406+927.835+884.889+929.107+883.936C931.485+882.152+935.981+898.384+938.369+896.593C944.35+892.107+946.417+915.61+952.43+911.1C957.626+907.203+964.787+907.178+969.926+903.324C972.898+901.095+974.293+897.718+976.407+894.9C978.333+892.332+983.235+889.217+986.127+887.771C989.586+886.042+994.679+889.585+997.792+890.363C1000.63+891.073+1003.03+889.055+1005.57+888.419C1008.05+887.798+1010.86+888.392+1013.34+887.771C1016.5+886.982+1024.86+890.728+1024.86+890.728L1023.9+1023.92L0.096098+1024.33" fill="#39b8d6" stroke-linecap="butt" opacity="1" stroke-linejoin="round"/>
</g>
<g id="lite_1" vectornator:layerName="lite_1">
<path stroke="#000000" stroke-opacity="0" stroke-width="0.1" d="M-0.656627+897.245C-0.656627+897.245+6.39927+899.079+8.05847+899.701C11.3476+900.935+15.2115+900.869+18.38+902.454C21.2956+903.912+24.0946+905.775+27.3253+906.582C29.037+907.01+31.175+906.798+32.8302+907.27C35.3883+908.001+38.2018+910.081+40.3993+911.399C42.0902+912.414+43.4166+911.876+45.216+912.775C47.3167+913.826+48.4713+916.467+50.7208+917.592C55.2473+919.855+60.653+920.15+65.171+922.409C74.6703+927.158+84.1974+930.97+94.7594+932.73C95.7712+932.899+96.5+933.938+97.5118+934.106C104.635+935.294+112.468+934.07+119.531+935.483C123.888+936.354+127.152+938.252+131.229+939.611C135.022+940.876+140.332+941.014+144.303+941.676C146.423+942.029+148.376+943.387+150.496+943.74C158.932+945.146+167.561+945.981+175.956+947.18C178.878+947.598+181.979+946.763+184.901+947.18C195.881+948.749+206.607+950.558+217.242+952.685C222.625+953.762+227.853+950.954+233.068+951.997C235.456+952.475+237.625+953.481+239.949+954.061C244.501+955.199+250.206+952.676+255.087+953.373C262.516+954.435+272.245+955.149+279.859+954.061C287.595+952.956+294.258+949.393+301.878+947.869C303.866+947.471+306.07+948.202+308.071+947.869C318.287+946.166+328.926+947.138+339.036+945.116C342.314+944.46+346.118+945.926+349.358+945.116C351.166+944.664+352.002+943.106+353.486+942.364C354.835+941.689+358.122+941.247+359.679+940.988C365.511+940.015+371.524+939.611+377.57+939.611C380.553+939.611+384.295+940.193+387.203+939.611C392.931+938.466+398.708+937.998+404.406+936.859C410.293+935.681+415.89+932.784+421.608+931.354C423.822+930.801+426.261+931.223+428.489+930.666C437.458+928.424+448.213+931.721+456.702+933.418C467.098+935.498+479.425+936.857+490.419+935.483C499.013+934.408+507.891+935.662+516.567+934.795C523.518+934.099+529.728+931.636+536.521+930.666C544.236+929.564+552.206+930.391+559.917+929.29C565.414+928.504+570.738+925.662+575.743+923.785C579.609+922.335+584.137+922.291+588.129+921.721C593.454+920.96+598.623+919.635+603.956+918.968C610.24+918.183+617.311+918.867+623.222+920.344C626.854+921.252+631.193+919.878+634.92+920.344C638.504+920.792+642.269+921.556+645.93+921.033C656.582+919.511+667.603+921.678+678.271+920.344C684.525+919.563+691.116+918.051+697.538+918.968C702.021+919.609+704.902+922.918+709.235+923.785C712.753+924.488+716.679+923.879+720.245+924.473C726.095+925.448+732.866+925.161+738.824+925.161C741.472+925.161+745.188+924.516+747.769+925.161C754.714+926.897+761.085+927.914+768.412+927.914C773.131+927.914+778.181+928.434+782.862+927.914C786.081+927.556+789.195+926.754+792.496+927.225C799.405+928.212+805.662+932.409+812.451+934.106C815.967+934.985+820.173+935.215+823.46+936.859C827.838+939.048+833.614+941.533+838.599+942.364C841.541+942.854+844.614+942.466+847.544+943.052C853.584+944.26+859.404+946.175+865.435+947.18C872.597+948.374+878.948+953.561+886.078+954.75C890.982+955.567+895.313+953.817+899.84+952.685C906.962+950.905+914.993+950.868+921.996+948.745C927.742+947.004+932.551+943.38+937.685+940.299C939.803+939.029+944.867+937.133+949.428+935.547C954.05+933.94+958.156+932.65+958.156+932.65C958.156+932.65+964.262+932.149+969.338+933.418C971.566+933.975+974.249+934.005+976.219+935.483C980.748+938.88+983.788+942.364+989.293+943.74C996.737+945.601+1004.56+946.007+1012+947.869C1013.3+948.192+1014.82+947.606+1016.13+947.869C1018.61+948.364+1024.84+948.624+1024.84+948.624L1024.84+1024.96L-0.604615+1024.41" fill="#2d91aa" stroke-linecap="butt" opacity="1" stroke-linejoin="round"/>
</g>
<g id="Layer 2" vectornator:layerName="Layer 2" visibility="hidden">
<g opacity="1">
<path stroke="#f7f8f8" vectornator:shadowColor="#00c7ff" vectornator:shadowOffset="0.446429" stroke-width="3.35" fill-opacity="0" fill="#f0f1f5" stroke-linecap="butt" vectornator:shadowAngle="1.5708" stroke-linejoin="round" opacity="1" vectornator:shadowRadius="49.7321" d="M337.81+578.298L338.545+578.298L351.075+622.131L364.064+622.131L381.643+555.899L367.323+555.899L357.088+602.578L356.353+602.578L344.053+555.899L332.349+555.899L320.277+602.578L319.543+602.578L309.216+555.899L294.804+555.899L312.337+622.131L325.418+622.131L337.81+578.298Z" vectornator:shadowOpacity="1"/>
<path stroke="#f7f8f8" vectornator:shadowColor="#00c7ff" vectornator:shadowOffset="0.446429" stroke-width="3.35" fill-opacity="0" fill="#f0f1f5" stroke-linecap="butt" vectornator:shadowAngle="1.5708" stroke-linejoin="round" opacity="1" vectornator:shadowRadius="49.7321" d="M408.724+580.639C414.966+580.639+419.005+584.815+419.28+591.516L397.708+591.516C398.167+584.953+402.527+580.639+408.724+580.639ZM419.556+607.719C418.133+611.069+414.507+612.951+409.228+612.951C402.252+612.951+397.846+608.269+397.662+600.742L397.662+600.054L432.407+600.054L432.407+595.969C432.407+579.904+423.595+570.403+408.678+570.403C393.623+570.403+384.351+580.593+384.351+597.07C384.351+613.502+393.439+623.232+408.861+623.232C421.254+623.232+429.975+617.265+431.994+607.719L419.556+607.719Z" vectornator:shadowOpacity="1"/>
<path stroke="#f7f8f8" vectornator:shadowColor="#00c7ff" vectornator:shadowOffset="0.446429" stroke-width="3.35" fill-opacity="0" fill="#f0f1f5" stroke-linecap="butt" vectornator:shadowAngle="1.5708" stroke-linejoin="round" opacity="1" vectornator:shadowRadius="49.7321" d="M443.79+622.131L457.146+622.131L457.146+552.182L443.79+552.182L443.79+622.131Z" vectornator:shadowOpacity="1"/>
<path stroke="#f7f8f8" vectornator:shadowColor="#00c7ff" vectornator:shadowOffset="0.446429" stroke-width="3.35" fill-opacity="0" fill="#f0f1f5" stroke-linecap="butt" vectornator:shadowAngle="1.5708" stroke-linejoin="round" opacity="1" vectornator:shadowRadius="49.7321" d="M515.805+589.359C514.703+577.839+506.671+570.403+493.268+570.403C477.434+570.403+468.529+579.904+468.529+596.703C468.529+613.685+477.479+623.232+493.268+623.232C506.441+623.232+514.703+615.934+515.805+604.598L503.32+604.598C502.31+609.6+498.73+612.263+493.268+612.263C486.108+612.263+482.023+606.801+482.023+596.703C482.023+586.743+486.062+581.373+493.268+581.373C498.96+581.373+502.402+584.54+503.32+589.359L515.805+589.359Z" vectornator:shadowOpacity="1"/>
<path stroke="#f7f8f8" vectornator:shadowColor="#00c7ff" vectornator:shadowOffset="0.446429" stroke-width="3.35" fill-opacity="0" fill="#f0f1f5" stroke-linecap="butt" vectornator:shadowAngle="1.5708" stroke-linejoin="round" opacity="1" vectornator:shadowRadius="49.7321" d="M548.668+623.232C564.227+623.232+573.591+613.364+573.591+596.795C573.591+580.363+564.09+570.403+548.668+570.403C533.246+570.403+523.745+580.409+523.745+596.795C523.745+613.364+533.108+623.232+548.668+623.232ZM548.668+612.308C541.508+612.308+537.469+606.663+537.469+596.795C537.469+587.064+541.554+581.327+548.668+581.327C555.736+581.327+559.867+587.064+559.867+596.795C559.867+606.617+555.782+612.308+548.668+612.308Z" vectornator:shadowOpacity="1"/>
<path stroke="#f7f8f8" vectornator:shadowColor="#00c7ff" vectornator:shadowOffset="0.446429" stroke-width="3.35" fill-opacity="0" fill="#f0f1f5" stroke-linecap="butt" vectornator:shadowAngle="1.5708" stroke-linejoin="round" opacity="1" vectornator:shadowRadius="49.7321" d="M584.469+622.131L597.825+622.131L597.825+591.654C597.825+586.009+601.543+581.924+606.775+581.924C612.008+581.924+615.129+584.999+615.129+590.369L615.129+622.131L627.98+622.131L627.98+591.149C627.98+585.779+631.469+581.924+636.885+581.924C642.53+581.924+645.33+584.907+645.33+590.92L645.33+622.131L658.686+622.131L658.686+587.386C658.686+576.967+652.398+570.403+642.301+570.403C635.232+570.403+629.403+574.121+627.062+579.766L626.236+579.766C624.217+573.891+619.351+570.403+612.237+570.403C605.582+570.403+600.304+573.983+598.238+579.766L597.412+579.766L597.412+571.505L584.469+571.505L584.469+622.131Z" vectornator:shadowOpacity="1"/>
<path stroke="#f7f8f8" vectornator:shadowColor="#00c7ff" vectornator:shadowOffset="0.446429" stroke-width="3.35" fill-opacity="0" fill="#f0f1f5" stroke-linecap="butt" vectornator:shadowAngle="1.5708" stroke-linejoin="round" opacity="1" vectornator:shadowRadius="49.7321" d="M693.523+580.639C699.766+580.639+703.805+584.815+704.08+591.516L682.508+591.516C682.967+584.953+687.327+580.639+693.523+580.639ZM704.355+607.719C702.933+611.069+699.307+612.951+694.028+612.951C687.052+612.951+682.645+608.269+682.462+600.742L682.462+600.054L717.207+600.054L717.207+595.969C717.207+579.904+708.394+570.403+693.477+570.403C678.423+570.403+669.151+580.593+669.151+597.07C669.151+613.502+678.239+623.232+693.661+623.232C706.054+623.232+714.774+617.265+716.794+607.719L704.355+607.719Z" vectornator:shadowOpacity="1"/>
<path stroke="#f7f8f8" vectornator:shadowColor="#00c7ff" vectornator:shadowOffset="0.446429" stroke-width="3.35" fill-opacity="0" fill="#f0f1f5" stroke-linecap="butt" vectornator:shadowAngle="1.5708" stroke-linejoin="round" opacity="1" vectornator:shadowRadius="49.7321" d="M730.839+555.899L732.032+600.329L744.287+600.329L745.526+555.899L730.839+555.899ZM729.829+615.705C729.829+620.524+733.042+623.508+738.183+623.508C743.369+623.508+746.536+620.524+746.536+615.705C746.536+610.84+743.369+607.856+738.183+607.856C733.042+607.856+729.829+610.84+729.829+615.705Z" vectornator:shadowOpacity="1"/>
</g>
</g>
</svg>
